<svg xmlns="http://www.w3.org/2000/svg" width="1200" height="760" viewBox="0 0 1200 760" role="img" aria-label="Procédures LOGO">
<defs>
  <linearGradient id="bg" x1="0" y1="0" x2="1" y2="1">
    <stop offset="0%" stop-color="#96fbc4"/>
    <stop offset="100%" stop-color="#f9f586"/>
  </linearGradient>
  <filter id="shadow" x="-20%" y="-20%" width="140%" height="140%">
    <feDropShadow dx="0" dy="14" stdDeviation="18" flood-color="#102040" flood-opacity="0.12"/>
  </filter>
</defs>
<rect width="1200" height="760" rx="40" fill="#f6f8ff"/>
<rect x="22" y="22" width="1156" height="716" rx="34" fill="url(#bg)" opacity="0.16"/>
<rect x="50" y="54" width="1100" height="652" rx="34" fill="#ffffff" filter="url(#shadow)"/>
<text x="88" y="122" font-size="38" font-family="Segoe UI, Arial" font-weight="700" fill="#22304a">Procédures LOGO</text>

<rect x="170" y="200" width="360" height="330" rx="30" fill="#ffffff" stroke="#dbeafe"/>
<rect x="200" y="240" width="300" height="60" rx="18" fill="#2563eb" opacity="0.14"/>
<rect x="200" y="325" width="300" height="60" rx="18" fill="#22c55e" opacity="0.14"/>
<rect x="200" y="410" width="300" height="60" rx="18" fill="#f59e0b" opacity="0.14"/>
<text x="350" y="278" font-size="28" font-family="Consolas, monospace" fill="#1d4ed8" text-anchor="middle">POUR CARRE</text>
<text x="350" y="363" font-size="28" font-family="Consolas, monospace" fill="#15803d" text-anchor="middle">REPETE 4 [...]</text>
<text x="350" y="448" font-size="28" font-family="Consolas, monospace" fill="#b45309" text-anchor="middle">FIN</text>
<path d="M560 365h120" stroke="#94a3b8" stroke-width="10" stroke-linecap="round"/>
<rect x="710" y="220" width="300" height="300" rx="28" fill="#eef2ff" stroke="#c7d2fe"/>
<circle cx="860" cy="350" r="58" fill="#22c55e"/>
<polygon points="860,290 904,350 816,350" fill="#16a34a"/>
<text x="860" y="465" font-size="28" font-family="Segoe UI, Arial" font-weight="700" fill="#2563eb" text-anchor="middle">Procédure réutilisable</text>

</svg>