<svg xmlns="http://www.w3.org/2000/svg" width="1200" height="760" viewBox="0 0 1200 760" role="img" aria-label="Instruction de répétition">
<defs>
  <linearGradient id="bg" x1="0" y1="0" x2="1" y2="1">
    <stop offset="0%" stop-color="#a18cd1"/>
    <stop offset="100%" stop-color="#fbc2eb"/>
  </linearGradient>
  <filter id="shadow" x="-20%" y="-20%" width="140%" height="140%">
    <feDropShadow dx="0" dy="14" stdDeviation="18" flood-color="#102040" flood-opacity="0.12"/>
  </filter>
</defs>
<rect width="1200" height="760" rx="40" fill="#f6f8ff"/>
<rect x="22" y="22" width="1156" height="716" rx="34" fill="url(#bg)" opacity="0.16"/>
<rect x="50" y="54" width="1100" height="652" rx="34" fill="#ffffff" filter="url(#shadow)"/>
<text x="88" y="122" font-size="38" font-family="Segoe UI, Arial" font-weight="700" fill="#22304a">Instruction de répétition</text>

<circle cx="360" cy="370" r="120" fill="#eef2ff" stroke="#c7d2fe" stroke-width="8"/>
<path d="M360 255c55 0 100 45 100 100" fill="none" stroke="#2563eb" stroke-width="14" stroke-linecap="round"/>
<polygon points="482,349 442,330 453,371" fill="#2563eb"/>
<path d="M360 485c-55 0-100-45-100-100" fill="none" stroke="#22c55e" stroke-width="14" stroke-linecap="round"/>
<polygon points="238,391 278,410 267,369" fill="#22c55e"/>
<circle cx="360" cy="370" r="44" fill="#22c55e"/>
<rect x="690" y="240" width="310" height="260" rx="26" fill="#ffffff" stroke="#dbeafe"/>
<text x="845" y="300" font-size="28" font-family="Segoe UI, Arial" font-weight="700" fill="#2563eb" text-anchor="middle">Répétition</text>
<text x="748" y="360" font-size="24" font-family="Consolas, monospace" fill="#334155">REPETE 4 [</text>
<text x="780" y="402" font-size="24" font-family="Consolas, monospace" fill="#334155">AV 60</text>
<text x="780" y="444" font-size="24" font-family="Consolas, monospace" fill="#334155">TD 90 ]</text>

</svg>