<svg xmlns="http://www.w3.org/2000/svg" width="1200" height="760" viewBox="0 0 1200 760" role="img" aria-label="Primitives de base">
<defs>
  <linearGradient id="bg" x1="0" y1="0" x2="1" y2="1">
    <stop offset="0%" stop-color="#fddb92"/>
    <stop offset="100%" stop-color="#d1fdff"/>
  </linearGradient>
  <filter id="shadow" x="-20%" y="-20%" width="140%" height="140%">
    <feDropShadow dx="0" dy="14" stdDeviation="18" flood-color="#102040" flood-opacity="0.12"/>
  </filter>
</defs>
<rect width="1200" height="760" rx="40" fill="#f6f8ff"/>
<rect x="22" y="22" width="1156" height="716" rx="34" fill="url(#bg)" opacity="0.16"/>
<rect x="50" y="54" width="1100" height="652" rx="34" fill="#ffffff" filter="url(#shadow)"/>
<text x="88" y="122" font-size="38" font-family="Segoe UI, Arial" font-weight="700" fill="#22304a">Primitives de base</text>

<circle cx="330" cy="360" r="54" fill="#22c55e"/>
<polygon points="330,290 375,360 285,360" fill="#16a34a"/>
<path d="M450 360h150" stroke="#2563eb" stroke-width="12" stroke-linecap="round"/>
<polygon points="610,360 580,342 580,378" fill="#2563eb"/>
<path d="M330 470v100" stroke="#f59e0b" stroke-width="12" stroke-linecap="round"/>
<polygon points="330,580 312,548 348,548" fill="#f59e0b"/>
<rect x="720" y="230" width="280" height="290" rx="24" fill="#ffffff" stroke="#dbeafe"/>
<text x="860" y="285" font-size="28" font-family="Segoe UI, Arial" font-weight="700" fill="#2563eb" text-anchor="middle">Primitives</text>
<text x="770" y="340" font-size="24" font-family="Consolas, monospace" fill="#334155">AV : avancer</text>
<text x="770" y="380" font-size="24" font-family="Consolas, monospace" fill="#334155">RE : reculer</text>
<text x="770" y="420" font-size="24" font-family="Consolas, monospace" fill="#334155">TD : tourner droite</text>
<text x="770" y="460" font-size="24" font-family="Consolas, monospace" fill="#334155">TG : tourner gauche</text>

</svg>