<svg xmlns="http://www.w3.org/2000/svg" width="1200" height="760" viewBox="0 0 1200 760" role="img" aria-label="Formules et fonctions">
<defs>
  <linearGradient id="bg" x1="0" y1="0" x2="1" y2="1">
    <stop offset="0%" stop-color="#d4fc79"/>
    <stop offset="100%" stop-color="#96e6a1"/>
  </linearGradient>
  <filter id="shadow" x="-20%" y="-20%" width="140%" height="140%">
    <feDropShadow dx="0" dy="14" stdDeviation="18" flood-color="#102040" flood-opacity="0.12"/>
  </filter>
</defs>
<rect width="1200" height="760" rx="40" fill="#f6f8ff"/>
<rect x="22" y="22" width="1156" height="716" rx="34" fill="url(#bg)" opacity="0.16"/>
<rect x="50" y="54" width="1100" height="652" rx="34" fill="#ffffff" filter="url(#shadow)"/>
<text x="88" y="122" font-size="38" font-family="Segoe UI, Arial" font-weight="700" fill="#22304a">Formules et fonctions</text>

<rect x="150" y="170" width="900" height="80" rx="24" fill="#eef2ff" stroke="#c7d2fe"/>
<circle cx="205" cy="210" r="26" fill="#2563eb"/>
<text x="205" y="218" font-size="24" font-family="Segoe UI, Arial" font-weight="700" fill="#fff" text-anchor="middle">fx</text>
<rect x="255" y="185" width="740" height="50" rx="16" fill="#ffffff" stroke="#dbeafe"/>
<text x="285" y="218" font-size="28" font-family="Consolas, monospace" fill="#22304a">=SOMME(B2:B6)</text>
<rect x="180" y="310" width="360" height="250" rx="24" fill="#ffffff" stroke="#dbeafe"/>
<rect x="180" y="310" width="360" height="54" rx="24" fill="#dcfce7"/>
<path d="M180 364H540" stroke="#dbeafe" stroke-width="4"/><path d="M180 413H540" stroke="#dbeafe" stroke-width="4"/><path d="M180 462H540" stroke="#dbeafe" stroke-width="4"/><path d="M180 511H540" stroke="#dbeafe" stroke-width="4"/><path d="M300 310V560" stroke="#dbeafe" stroke-width="4"/><path d="M300 310V560" stroke="#dbeafe" stroke-width="4"/><path d="M420 310V560" stroke="#dbeafe" stroke-width="4"/>
<rect x="320" y="415" width="120" height="44" rx="10" fill="#bfdbfe"/>
<text x="380" y="445" font-size="26" font-family="Segoe UI, Arial" font-weight="700" fill="#1d4ed8" text-anchor="middle">=B2*C2</text>
<rect x="650" y="330" width="320" height="210" rx="24" fill="#eff6ff" stroke="#bfdbfe"/>
<text x="810" y="395" font-size="26" font-family="Segoe UI, Arial" font-weight="700" fill="#2563eb" text-anchor="middle">Recopie automatique</text>
<path d="M810 430v56" stroke="#2563eb" stroke-width="10" stroke-linecap="round"/>
<polygon points="810,505 792,472 828,472" fill="#2563eb"/>

</svg>