<svg xmlns="http://www.w3.org/2000/svg" width="1200" height="760" viewBox="0 0 1200 760" role="img" aria-label="Gestion d’un fichier tableur">
<defs>
  <linearGradient id="bg" x1="0" y1="0" x2="1" y2="1">
    <stop offset="0%" stop-color="#a1ffce"/>
    <stop offset="100%" stop-color="#faffd1"/>
  </linearGradient>
  <filter id="shadow" x="-20%" y="-20%" width="140%" height="140%">
    <feDropShadow dx="0" dy="14" stdDeviation="18" flood-color="#102040" flood-opacity="0.12"/>
  </filter>
</defs>
<rect width="1200" height="760" rx="40" fill="#f6f8ff"/>
<rect x="22" y="22" width="1156" height="716" rx="34" fill="url(#bg)" opacity="0.16"/>
<rect x="50" y="54" width="1100" height="652" rx="34" fill="#ffffff" filter="url(#shadow)"/>
<text x="88" y="122" font-size="38" font-family="Segoe UI, Arial" font-weight="700" fill="#22304a">Gestion d’un fichier tableur</text>

<rect x="180" y="160" width="360" height="440" rx="26" fill="#eff6ff" stroke="#bfdbfe"/>
<rect x="220" y="210" width="280" height="40" rx="10" fill="#22c55e" opacity="0.25"/>
<rect x="220" y="270" width="280" height="24" rx="6" fill="#cbd5e1"/><rect x="220" y="312" width="280" height="24" rx="6" fill="#e2e8f0"/><rect x="220" y="354" width="280" height="24" rx="6" fill="#cbd5e1"/><rect x="220" y="396" width="280" height="24" rx="6" fill="#e2e8f0"/><rect x="220" y="438" width="280" height="24" rx="6" fill="#cbd5e1"/><rect x="220" y="480" width="280" height="24" rx="6" fill="#e2e8f0"/>
<text x="360" y="190" font-size="28" font-family="Segoe UI, Arial" font-weight="700" fill="#2563eb" text-anchor="middle">Tableur</text>
<rect x="650" y="210" width="330" height="300" rx="24" fill="#ffffff" stroke="#dbeafe"/>
<rect x="680" y="250" width="220" height="16" rx="8" fill="#cbd5e1"/>
<rect x="680" y="290" width="260" height="16" rx="8" fill="#e2e8f0"/>
<rect x="680" y="330" width="190" height="16" rx="8" fill="#e2e8f0"/>
<rect x="680" y="392" width="190" height="68" rx="18" fill="#2563eb" opacity="0.12"/>
<text x="775" y="435" font-size="24" font-family="Segoe UI, Arial" font-weight="700" fill="#2563eb" text-anchor="middle">Fichier .xlsx</text>

</svg>