<svg xmlns="http://www.w3.org/2000/svg" width="1200" height="760" viewBox="0 0 1200 760" role="img" aria-label="Graphiques et impression">
<defs>
  <linearGradient id="bg" x1="0" y1="0" x2="1" y2="1">
    <stop offset="0%" stop-color="#84fab0"/>
    <stop offset="100%" stop-color="#8fd3f4"/>
  </linearGradient>
  <filter id="shadow" x="-20%" y="-20%" width="140%" height="140%">
    <feDropShadow dx="0" dy="14" stdDeviation="18" flood-color="#102040" flood-opacity="0.12"/>
  </filter>
</defs>
<rect width="1200" height="760" rx="40" fill="#f6f8ff"/>
<rect x="22" y="22" width="1156" height="716" rx="34" fill="url(#bg)" opacity="0.16"/>
<rect x="50" y="54" width="1100" height="652" rx="34" fill="#ffffff" filter="url(#shadow)"/>
<text x="88" y="122" font-size="38" font-family="Segoe UI, Arial" font-weight="700" fill="#22304a">Graphiques et impression</text>

<rect x="150" y="210" width="420" height="350" rx="28" fill="#ffffff" stroke="#dbeafe"/>
<path d="M220 520V300" stroke="#334155" stroke-width="8"/>
<path d="M220 520H500" stroke="#334155" stroke-width="8"/>
<rect x="255" y="410" width="48" height="110" rx="10" fill="#60a5fa"/>
<rect x="330" y="360" width="48" height="160" rx="10" fill="#22c55e"/>
<rect x="405" y="300" width="48" height="220" rx="10" fill="#f59e0b"/>
<path d="M710 330a110 110 0 1 1 -1 0" fill="#bfdbfe"/>
<path d="M710 330 L710 220 A110 110 0 0 1 814 364Z" fill="#2563eb"/>
<path d="M710 330 L814 364 A110 110 0 0 1 616 410Z" fill="#22c55e"/>
<rect x="870" y="240" width="170" height="260" rx="24" fill="#f8fafc" stroke="#dbeafe"/>
<rect x="900" y="270" width="110" height="90" rx="12" fill="#ffffff" stroke="#cbd5e1"/>
<rect x="888" y="365" width="134" height="22" rx="11" fill="#cbd5e1"/>
<rect x="920" y="415" width="70" height="70" rx="16" fill="#22c55e" opacity="0.15"/>
<text x="955" y="456" font-size="22" font-family="Segoe UI, Arial" font-weight="700" fill="#16a34a" text-anchor="middle">Print</text>

</svg>