<svg xmlns="http://www.w3.org/2000/svg" width="1200" height="760" viewBox="0 0 1200 760" role="img" aria-label="Feuilles, cellules et adresses">
<defs>
  <linearGradient id="bg" x1="0" y1="0" x2="1" y2="1">
    <stop offset="0%" stop-color="#89f7fe"/>
    <stop offset="100%" stop-color="#66a6ff"/>
  </linearGradient>
  <filter id="shadow" x="-20%" y="-20%" width="140%" height="140%">
    <feDropShadow dx="0" dy="14" stdDeviation="18" flood-color="#102040" flood-opacity="0.12"/>
  </filter>
</defs>
<rect width="1200" height="760" rx="40" fill="#f6f8ff"/>
<rect x="22" y="22" width="1156" height="716" rx="34" fill="url(#bg)" opacity="0.16"/>
<rect x="50" y="54" width="1100" height="652" rx="34" fill="#ffffff" filter="url(#shadow)"/>
<text x="88" y="122" font-size="38" font-family="Segoe UI, Arial" font-weight="700" fill="#22304a">Feuilles, cellules et adresses</text>

<rect x="160" y="170" width="840" height="430" rx="26" fill="#ffffff" stroke="#dbeafe"/>
<rect x="160" y="170" width="840" height="54" rx="26" fill="#eff6ff"/>
<rect x="160" y="170" width="70" height="430" rx="26" fill="#f8fafc"/>
<path d="M230 224H1000" stroke="#dbeafe" stroke-width="4"/><path d="M230 286H1000" stroke="#dbeafe" stroke-width="4"/><path d="M230 348H1000" stroke="#dbeafe" stroke-width="4"/><path d="M230 410H1000" stroke="#dbeafe" stroke-width="4"/><path d="M230 472H1000" stroke="#dbeafe" stroke-width="4"/><path d="M230 534H1000" stroke="#dbeafe" stroke-width="4"/><path d="M230 224V600" stroke="#dbeafe" stroke-width="4"/><path d="M230 224V600" stroke="#dbeafe" stroke-width="4"/><path d="M340 224V600" stroke="#dbeafe" stroke-width="4"/><path d="M450 224V600" stroke="#dbeafe" stroke-width="4"/><path d="M560 224V600" stroke="#dbeafe" stroke-width="4"/><path d="M670 224V600" stroke="#dbeafe" stroke-width="4"/><path d="M780 224V600" stroke="#dbeafe" stroke-width="4"/><path d="M890 224V600" stroke="#dbeafe" stroke-width="4"/><path d="M1000 224V600" stroke="#dbeafe" stroke-width="4"/>
<rect x="340" y="286" width="110" height="62" rx="12" fill="#bfdbfe"/>
<text x="395" y="326" font-size="32" font-family="Segoe UI, Arial" font-weight="700" fill="#1d4ed8" text-anchor="middle">A1</text>
<text x="260" y="205" font-size="24" font-family="Segoe UI, Arial" font-weight="700" fill="#334155">A</text>
<text x="370" y="205" font-size="24" font-family="Segoe UI, Arial" font-weight="700" fill="#334155">B</text>
<text x="480" y="205" font-size="24" font-family="Segoe UI, Arial" font-weight="700" fill="#334155">C</text>
<text x="198" y="262" font-size="24" font-family="Segoe UI, Arial" font-weight="700" fill="#334155">1</text>
<text x="198" y="324" font-size="24" font-family="Segoe UI, Arial" font-weight="700" fill="#334155">2</text>
<text x="198" y="386" font-size="24" font-family="Segoe UI, Arial" font-weight="700" fill="#334155">3</text>

</svg>