<svg xmlns="http://www.w3.org/2000/svg" width="1200" height="760" viewBox="0 0 1200 760" role="img" aria-label="Saisie et mise en forme">
<defs>
  <linearGradient id="bg" x1="0" y1="0" x2="1" y2="1">
    <stop offset="0%" stop-color="#ffecd2"/>
    <stop offset="100%" stop-color="#fcb69f"/>
  </linearGradient>
  <filter id="shadow" x="-20%" y="-20%" width="140%" height="140%">
    <feDropShadow dx="0" dy="14" stdDeviation="18" flood-color="#102040" flood-opacity="0.12"/>
  </filter>
</defs>
<rect width="1200" height="760" rx="40" fill="#f6f8ff"/>
<rect x="22" y="22" width="1156" height="716" rx="34" fill="url(#bg)" opacity="0.16"/>
<rect x="50" y="54" width="1100" height="652" rx="34" fill="#ffffff" filter="url(#shadow)"/>
<text x="88" y="122" font-size="38" font-family="Segoe UI, Arial" font-weight="700" fill="#22304a">Saisie et mise en forme</text>

<rect x="125" y="170" width="950" height="110" rx="24" fill="#eff6ff" stroke="#dbeafe"/>
<rect x="165" y="205" width="50" height="42" rx="10" fill="#2563eb"/>
<rect x="230" y="205" width="50" height="42" rx="10" fill="#22c55e"/>
<rect x="295" y="205" width="50" height="42" rx="10" fill="#f59e0b"/>
<rect x="380" y="205" width="160" height="42" rx="10" fill="#ffffff" stroke="#cbd5e1"/>
<rect x="560" y="205" width="160" height="42" rx="10" fill="#ffffff" stroke="#cbd5e1"/>
<rect x="165" y="320" width="700" height="290" rx="24" fill="#ffffff" stroke="#dbeafe"/>
<rect x="165" y="320" width="700" height="56" rx="24" fill="#d1fae5"/>
<path d="M165 376H865" stroke="#dbeafe" stroke-width="4"/><path d="M165 434H865" stroke="#dbeafe" stroke-width="4"/><path d="M165 492H865" stroke="#dbeafe" stroke-width="4"/><path d="M165 550H865" stroke="#dbeafe" stroke-width="4"/><path d="M305 320V610" stroke="#dbeafe" stroke-width="4"/><path d="M305 320V610" stroke="#dbeafe" stroke-width="4"/><path d="M445 320V610" stroke="#dbeafe" stroke-width="4"/><path d="M585 320V610" stroke="#dbeafe" stroke-width="4"/><path d="M725 320V610" stroke="#dbeafe" stroke-width="4"/>
<rect x="915" y="330" width="120" height="120" rx="18" fill="#eff6ff" stroke="#c7d2fe"/>
<rect x="915" y="490" width="120" height="120" rx="18" fill="#fef3c7" stroke="#fde68a"/>
<text x="975" y="398" font-size="24" font-family="Segoe UI, Arial" font-weight="700" fill="#1d4ed8" text-anchor="middle">Aa</text>
<text x="975" y="558" font-size="24" font-family="Segoe UI, Arial" font-weight="700" fill="#b45309" text-anchor="middle">Couleur</text>

</svg>