<svg xmlns="http://www.w3.org/2000/svg" width="1000" height="620" viewBox="0 0 1000 620">
  <defs>
    <filter id="shadow" x="-20%" y="-20%" width="140%" height="140%"><feDropShadow dx="0" dy="8" stdDeviation="10" flood-color="#1f2937" flood-opacity="0.16"/></filter>
  </defs>
  <rect width="1000" height="620" rx="34" fill="#f7fbff"/>
  <rect x="34" y="34" width="932" height="552" rx="28" fill="#ffffff" filter="url(#shadow)"/>
  <text x="70" y="92" font-family="Arial, sans-serif" font-size="38" font-weight="700" fill="#153e75">Système d’exploitation</text>
  <text x="70" y="130" font-family="Arial, sans-serif" font-size="22" fill="#4b5563">Intermédiaire entre l’utilisateur et le matériel</text>

  <rect x="70" y="260" width="250" height="150" rx="22" fill="#E7F3FF" stroke="#cbd5e1" stroke-width="2"/>
  <text x="195" y="318" text-anchor="middle" font-family="Arial, sans-serif" font-size="28" font-weight="700" fill="#0f172a">Utilisateur</text>
  <text x="195" y="358" text-anchor="middle" font-family="Arial, sans-serif" font-size="19" fill="#334155">demande une action</text>

  <path d="M 340.0 335 L 395.0 335" stroke="#2563eb" stroke-width="6" stroke-linecap="round"/>
  <path d="M 395.0 335 l -14 -12 M 395.0 335 l -14 12" stroke="#2563eb" stroke-width="6" stroke-linecap="round" fill="none"/>

  <rect x="375" y="260" width="250" height="150" rx="22" fill="#EAF7EF" stroke="#cbd5e1" stroke-width="2"/>
  <text x="500" y="318" text-anchor="middle" font-family="Arial, sans-serif" font-size="28" font-weight="700" fill="#0f172a">S.E.</text>
  <text x="500" y="358" text-anchor="middle" font-family="Arial, sans-serif" font-size="19" fill="#334155">organise et contrôle</text>

  <path d="M 645.0 335 L 700.0 335" stroke="#2563eb" stroke-width="6" stroke-linecap="round"/>
  <path d="M 700.0 335 l -14 -12 M 700.0 335 l -14 12" stroke="#2563eb" stroke-width="6" stroke-linecap="round" fill="none"/>

  <rect x="680" y="260" width="250" height="150" rx="22" fill="#FFF3DF" stroke="#cbd5e1" stroke-width="2"/>
  <text x="805" y="318" text-anchor="middle" font-family="Arial, sans-serif" font-size="28" font-weight="700" fill="#0f172a">Matériel</text>
  <text x="805" y="358" text-anchor="middle" font-family="Arial, sans-serif" font-size="19" fill="#334155">exécute l’action</text>

</svg>